<?xml version="1.0" encoding="UTF-8"?>
<svg id="Layer_2" data-name="Layer 2" xmlns="http://www.w3.org/2000/svg" xmlns:xlink="http://www.w3.org/1999/xlink" viewBox="0 0 1081 1080">
  <defs>
    <style>
      .cls-1 {
        fill: url(#linear-gradient);
      }

      .cls-1, .cls-2, .cls-3, .cls-4 {
        stroke-width: 0px;
      }

      .cls-2 {
        fill: #fff;
      }

      .cls-3 {
        fill: url(#linear-gradient-2);
      }

      .cls-4 {
        fill: #4268d1;
      }
    </style>
    <linearGradient id="linear-gradient" x1="540.5" y1="540" x2="540.5" y2="1080" gradientUnits="userSpaceOnUse">
      <stop offset=".07" stop-color="#22242c" stop-opacity="0"/>
      <stop offset=".44" stop-color="#1f222a" stop-opacity=".33"/>
      <stop offset=".98" stop-color="#1b1e28"/>
    </linearGradient>
    <linearGradient id="linear-gradient-2" x1="498.8" y1="185.33" x2="37.64" y2="-544.05" gradientUnits="userSpaceOnUse">
      <stop offset=".03" stop-color="#26282f" stop-opacity="0"/>
      <stop offset=".9" stop-color="#020e1d"/>
    </linearGradient>
  </defs>
  <g id="Layer_1-2" data-name="Layer 1">
    <rect class="cls-1" x="0" y="540" width="1081" height="540"/>
    <rect class="cls-3" width="1080" height="501"/>
    <rect class="cls-4" width="1081" height="14"/>
    <rect class="cls-4" y="1066" width="1081" height="14"/>
    <g id="Layer_1-2" data-name="Layer 1-2">
      <path class="cls-2" d="M133.6,129.27c0,2.24-.91,4.27-2.39,5.73-1.48,1.47-3.51,2.37-5.76,2.37h-8.67c-.33,0-.6-.27-.6-.59v-.04c0-.18.08-.35.22-.46.58-.48,1.04-1.1,1.34-1.82l2.82-6.81s0,0,0-.01c.24-.59.36-1.2.36-1.78,0-1.57-.8-3.03-2.08-3.9-1.36-.93-1.9-2.66-1.27-4.18l4.36-10.57c.57-1.38,1.92-2.28,3.42-2.28,2.2,0,4.25.9,5.75,2.34,1.5,1.44,2.46,3.44,2.5,5.63.04,2.29-.88,4.37-2.38,5.87-1.48,1.47-3.51,2.37-5.76,2.37,4.5.03,8.15,3.67,8.15,8.14h0Z"/>
      <path class="cls-2" d="M111.84,114.47c-.24.6-.36,1.21-.36,1.8,0,1.57.79,3.03,2.05,3.9,1.35.93,1.88,2.67,1.26,4.19l-4.32,10.6c-.56,1.38-1.9,2.28-3.38,2.28-1.27,0-2.42-.52-3.25-1.36s-1.35-2-1.35-3.28v-23.19c0-2.56,2.06-4.64,4.6-4.64h8.49c.33,0,.59.27.59.59h0c0,.19-.07.35-.21.46-.59.49-1.07,1.12-1.37,1.86l-2.76,6.77h0Z"/>
      <g>
        <path class="cls-2" d="M156,122.58c0,1.34-.44,2.36-1.31,3.05-.88.69-2.05,1.04-3.53,1.04h-6.6v-14.93h5.74c2.81,0,4.22,1.12,4.22,3.35,0,.89-.27,1.65-.8,2.25s-1.26,1.01-2.19,1.21v.43c2.99,0,4.48,1.2,4.48,3.59h0ZM146.04,118.21h4.02c.83,0,1.46-.24,1.9-.73.44-.48.66-1.13.66-1.94s-.23-1.36-.69-1.74-1.21-.57-2.23-.57h-3.65v4.98h0ZM153.35,124.45c.61-.48.91-1.23.91-2.24,0-.94-.3-1.63-.89-2.08s-1.42-.67-2.48-.67h-4.84v5.72h4.47c1.28,0,2.22-.24,2.83-.73h0Z"/>
        <path class="cls-2" d="M165.65,116.22l-.44,1.61c-.16-.19-.39-.36-.7-.51s-.64-.23-1-.23c-1.02,0-1.82.56-2.41,1.69s-.88,2.66-.88,4.61v3.28h-1.49v-10.7h1.21l.17,3.23h.35c.15-1.05.5-1.91,1.06-2.59s1.3-1.02,2.21-1.02c.39,0,.75.06,1.08.17s.61.27.84.46h0Z"/>
        <path class="cls-2" d="M166.95,112.27c0-.32.09-.58.27-.78.18-.2.46-.3.83-.3.35,0,.61.1.8.3s.28.46.28.78-.09.58-.28.79c-.19.21-.45.31-.8.31-.37,0-.65-.1-.83-.3-.18-.2-.27-.47-.27-.8h0ZM167.45,126.67v-10.7h1.49v10.7h-1.49Z"/>
        <path class="cls-2" d="M181.13,121.02c0,.19-.01.5-.04.93h-8.19c.06,1.22.4,2.15,1.04,2.79.63.63,1.46.95,2.48.95.86,0,1.56-.18,2.1-.55s.94-.89,1.21-1.57l1.25.41c-.27.94-.81,1.68-1.62,2.22-.81.55-1.81.82-3.02.82-1.64,0-2.9-.48-3.78-1.44s-1.32-2.29-1.32-4.01c0-1.18.21-2.21.64-3.09s1.03-1.56,1.8-2.03c.78-.48,1.68-.71,2.72-.71,1.51,0,2.68.47,3.5,1.4s1.23,2.22,1.23,3.87h0ZM172.99,120.7h6.67c-.01-1.18-.27-2.11-.78-2.77-.51-.67-1.31-1.01-2.42-1.01-.95,0-1.74.32-2.37.97-.63.65-1,1.59-1.11,2.81Z"/>
        <path class="cls-2" d="M190.09,115.97v1.24h-3.98v9.46h-1.49v-9.46h-1.74v-1.24h1.74v-1.04c0-1.15.29-2.05.87-2.68.58-.63,1.39-.95,2.42-.95.61,0,1.11.07,1.5.23s.76.36,1.08.61l-.75,1.12c-.53-.46-1.12-.69-1.8-.69-.6,0-1.06.18-1.37.55-.31.37-.47.88-.47,1.55v1.3h3.98,0Z"/>
        <path class="cls-2" d="M190.96,122l2.38-.82c.19,1.09.64,1.95,1.36,2.57.72.62,1.63.93,2.72.93,1.01,0,1.8-.19,2.39-.58s.88-.94.88-1.64c0-.53-.16-.95-.48-1.25-.32-.3-.76-.53-1.32-.67-.56-.14-1.32-.27-2.29-.39-1.68-.23-3.02-.66-4.01-1.3s-1.48-1.61-1.48-2.94c0-.89.24-1.67.73-2.34.49-.67,1.17-1.18,2.05-1.53.88-.35,1.89-.53,3.05-.53,1.92,0,3.38.39,4.4,1.17,1.02.78,1.59,1.92,1.72,3.43l-2.33.56c-.19-1.01-.56-1.76-1.12-2.26-.56-.5-1.46-.75-2.7-.75-.91,0-1.64.17-2.2.51-.56.34-.84.82-.84,1.44,0,.51.18.9.54,1.2s.83.52,1.42.66c.58.14,1.37.28,2.36.41,1.07.16,1.97.37,2.71.65s1.35.71,1.81,1.3.7,1.38.7,2.38-.26,1.83-.78,2.55-1.23,1.27-2.13,1.64c-.9.37-1.92.56-3.06.56-1.73,0-3.18-.44-4.36-1.31s-1.89-2.09-2.12-3.64h0Z"/>
        <path class="cls-2" d="M217.09,121.22c0,1.21-.2,2.25-.59,3.11s-.94,1.51-1.63,1.95c-.69.44-1.47.66-2.33.66-.97,0-1.81-.25-2.5-.76-.69-.51-1.19-1.26-1.5-2.24h-.47c0,.12.03.58.09,1.39s.09,1.82.09,3.03v2.8h-2.74v-15.43h2.34l.32,2.99h.33c.32-.97.84-1.72,1.53-2.24.7-.52,1.57-.78,2.61-.78,1.37,0,2.45.47,3.25,1.41s1.19,2.32,1.19,4.14h0ZM214.37,121.2c0-2.49-.91-3.74-2.72-3.74-.91,0-1.63.35-2.18,1.06-.55.71-.82,1.61-.82,2.7s.27,1.99.81,2.66,1.25.99,2.13.99,1.6-.32,2.07-.96c.48-.64.71-1.55.71-2.71h0Z"/>
        <path class="cls-2" d="M229.41,118.9v7.78h-2.49v-6.65c0-.71-.17-1.25-.51-1.64-.34-.39-.81-.58-1.42-.58s-1.11.19-1.57.58-.82.95-1.09,1.69-.39,1.62-.39,2.63v3.98h-2.74v-15.18h2.74v2.64c0,1.09-.06,2.53-.17,4.33h.45c.68-2.08,1.96-3.12,3.85-3.12,1.03,0,1.85.31,2.45.93.6.62.89,1.5.89,2.63h0Z"/>
        <path class="cls-2" d="M241.85,120.95c0,.43-.01.76-.04.99h-7.71c.1.94.39,1.65.86,2.15s1.11.75,1.9.75c1.3,0,2.18-.6,2.66-1.79l2.14.54c-.24,1.01-.79,1.81-1.63,2.41s-1.96.9-3.34.9c-1.71,0-3.04-.48-3.99-1.45-.94-.97-1.42-2.33-1.42-4.08,0-1.19.22-2.24.66-3.13.44-.89,1.07-1.59,1.9-2.09s1.8-.74,2.93-.74c1.61,0,2.86.5,3.75,1.49s1.33,2.35,1.33,4.06h0ZM234.06,120.45h5.21c-.01-.94-.23-1.67-.65-2.21s-1.03-.81-1.84-.81c-.75,0-1.36.26-1.85.78s-.77,1.27-.88,2.25Z"/>
        <path class="cls-2" d="M251.5,118.85c-.16-.19-.4-.37-.73-.54-.32-.17-.68-.25-1.08-.25-.59,0-1.12.21-1.59.62s-.84,1.01-1.11,1.8c-.27.79-.41,1.73-.41,2.83v3.37h-2.74v-10.95h2.25l.24,3.48h.42c.16-1.1.53-2,1.11-2.7.58-.7,1.36-1.05,2.33-1.05.74,0,1.38.21,1.92.62l-.62,2.78h0Z"/>
        <path class="cls-2" d="M263,120.95c0,.43-.01.76-.04.99h-7.71c.1.94.39,1.65.86,2.15s1.11.75,1.9.75c1.3,0,2.18-.6,2.66-1.79l2.14.54c-.24,1.01-.79,1.81-1.63,2.41s-1.96.9-3.34.9c-1.71,0-3.04-.48-3.99-1.45-.94-.97-1.42-2.33-1.42-4.08,0-1.19.22-2.24.66-3.13.44-.89,1.07-1.59,1.9-2.09s1.8-.74,2.93-.74c1.61,0,2.86.5,3.75,1.49s1.33,2.35,1.33,4.06h0ZM255.16,120.45h5.21c-.01-.94-.23-1.67-.65-2.21-.42-.54-1.03-.81-1.84-.81-.75,0-1.36.26-1.85.78s-.77,1.27-.88,2.25Z"/>
      </g>
    </g>
  </g>
</svg>